<?xml version="1.0" encoding="UTF-8" standalone="no"?>
<!-- Created with Inkscape (http://www.inkscape.org/) -->

<svg
   width="467.98904"
   height="198.33531"
   viewBox="0 0 467.98904 198.33531"
   version="1.1"
   id="svg1"
   xmlns="http://www.w3.org/2000/svg"
   xmlns:svg="http://www.w3.org/2000/svg">
  <defs
     id="defs1" />
  <g
     id="layer1"
     transform="translate(-27.899227,-137.51225)">
    <path
       id="text1"
       style="font-size:170.667px;font-family:Noteworthy;-inkscape-font-specification:'Noteworthy, Normal';fill:#ff0000;stroke:#f5a9b8;stroke-width:1.00157"
       d="m 119.06686,276.03998 q -1.06667,2.34667 -2.56,2.34667 -0.85334,0 -2.56001,-0.21333 -1.49334,-0.42667 -2.34667,-0.42667 -9.17335,0 -26.666721,5.97335 -17.280035,5.76001 -26.453386,5.76001 -30.08006,0 -30.08006,-50.5601 0,-40.10675 2.133337,-68.48014 0.426668,-6.82668 0.426668,-6.82668 0,-1.70667 -0.640001,-4.26667 -0.426668,-2.77334 -0.426668,-3.84001 0,-5.12001 7.040014,-5.76001 7.893349,-0.85334 31.146729,-6.61335 21.120042,-5.12001 30.293394,-5.12001 1.066669,0 2.986674,0.42667 3.41334,-0.21334 6.61335,1.92 3.2,2.13334 3.2,4.48001 0,4.26668 -10.88002,4.26668 -9.813353,0 -28.800058,3.41334 -21.333376,4.05334 -26.453386,8.32001 -1.70667,16.21337 -4.053341,50.77344 0.853335,1.06667 2.346671,1.06667 6.400013,0 18.986705,-4.05335 12.586691,-4.05334 19.200038,-4.05334 5.333344,0 10.666688,2.77334 l 1.70667,6.40001 q 0.426667,0.85334 -5.546678,2.98668 -2.986672,-1.92001 -7.680015,-1.92001 -5.333344,0 -20.266707,3.84001 -14.72003,3.84001 -20.053374,6.40001 -0.853335,4.69335 -0.853335,21.76005 0,32.21339 16.4267,32.21339 7.893349,0 22.613378,-5.33334 14.933363,-5.33334 22.826714,-5.33334 13.65336,0 17.7067,7.68001 z m 75.09335,10.02669 q -1.28,2.34667 -3.62667,2.34667 -2.34667,0 -7.68002,-2.98667 V 283.72 q 0,-1.92001 0.21334,-5.76001 0.21333,-3.84001 0.21333,-5.54668 0,-70.82681 -17.7067,-70.82681 -5.54668,0 -11.94669,8.10668 -16.21337,20.05338 -16.21337,50.5601 0,4.05335 1.28,11.94669 1.49334,7.68002 1.49334,11.73336 0,3.20001 -4.48001,3.20001 -8.53335,0 -8.53335,-13.44003 v -48.42676 q 0,-1.92001 0.42667,-5.54668 0.42667,-3.62667 0.42667,-5.54668 0,-2.77334 -0.85334,-8.10668 -0.64,-5.33334 -0.64,-7.89335 0,-1.70667 2.56,-3.84001 2.77334,-2.34667 4.26668,-2.34667 2.77334,0 5.12001,2.98667 -0.64,13.8667 -0.64,16.21337 0,3.20001 0.21333,6.18668 1.92001,-0.64 5.12001,-7.04002 4.05334,-8.10668 6.82668,-11.09335 5.12001,-5.97335 11.73336,-5.97335 2.56,0 7.68002,1.92001 11.52002,4.26667 16.42669,14.08003 8.32002,16.85336 8.32002,44.58675 z m 76.58678,-65.0668 q 0,1.28 -0.21333,3.62668 -4.48001,21.33337 -4.48001,34.34673 0,6.61335 0.64,20.26671 0.64,13.65336 0.64,20.48004 0,13.22669 -2.13334,19.20004 -2.56,7.04001 -9.81335,11.73335 -7.25335,4.69335 -14.93336,4.69335 -8.96002,0 -20.69338,-3.84001 -14.93336,-4.69334 -14.93336,-11.30669 0,-5.76001 4.48001,-5.76001 1.92,0 3.41334,2.56 2.13334,3.62668 2.77334,4.05335 1.70667,1.70667 8.74668,3.2 6.40001,1.70667 9.60002,1.70667 11.94669,0 18.13337,-9.38668 5.33334,-7.89335 5.33334,-20.69338 0,-13.65336 -2.34667,-21.76004 -10.24002,13.44003 -24.53338,13.44003 -4.26668,0 -10.02669,-2.77334 -5.76001,-2.98668 -8.53335,-6.40002 -5.76001,-6.82668 -5.76001,-21.54671 0,-18.13337 6.61335,-39.04007 8.53335,-27.09339 22.40004,-27.09339 11.09336,0 23.46672,20.05337 1.28,2.34667 4.05334,6.18668 2.77334,0.85334 8.10668,4.05334 z m -12.80002,11.73336 q 0,-4.48001 -3.20001,-7.46668 -0.64,-8.96002 -4.48001,-15.36003 -4.90668,-7.89335 -13.22669,-7.89335 -5.76001,0 -11.52003,13.01336 -4.26667,9.81335 -5.76001,18.3467 -2.13334,12.80003 -2.13334,21.76004 0,26.24006 15.1467,26.24006 11.52002,0 19.20004,-19.20004 5.97335,-15.57337 5.97335,-29.44006 z m 86.61354,58.45345 q 0,2.98667 -4.69334,2.98667 -5.12001,0 -6.18668,-4.26667 -0.21333,-0.64 -0.21333,-8.32002 0,-2.13334 -0.64,-3.41334 -11.94669,8.74668 -25.81339,8.74668 -9.60002,0 -18.56003,-5.33334 -10.24002,-5.97335 -10.24002,-14.93336 0,-8.74669 12.16002,-17.0667 11.09335,-7.68002 20.48004,-7.68002 h 21.12004 q 1.28,-1.28 1.28,-4.48001 0,-14.29336 -2.34667,-21.54671 -3.84,-12.16002 -15.14669,-12.16002 -8.10669,0 -14.93337,10.24002 -6.18668,9.38668 -6.18668,17.92003 0,0.42667 0,1.28001 0,0.85333 0,1.06667 0,1.70667 -1.70667,1.70667 -2.13333,0 -4.69334,-2.56001 -2.56,-2.56 -2.56,-4.48001 0,-5.97334 3.62667,-14.93336 3.62667,-9.17335 7.89335,-13.8667 5.33334,-5.76001 13.22669,-5.76001 12.16003,0 22.40005,7.68002 10.88002,8.32001 11.09335,20.05337 z m -11.30669,-33.92007 q 0,-8.53335 -13.22669,-8.53335 -10.45335,0 -18.3467,3.62667 -10.02669,4.69335 -10.02669,14.08003 0,5.76001 5.33335,8.96002 4.48,2.77334 10.66668,2.77334 9.17336,0 17.28004,-5.97335 8.32001,-5.97334 8.32001,-14.93336 z m 88.96026,-36.26674 q 0,1.28 -0.21334,3.62668 -4.48001,21.33337 -4.48001,34.34673 0,6.61335 0.64001,20.26671 0.64,13.65336 0.64,20.48004 0,13.22669 -2.13334,19.20004 -2.56001,7.04001 -9.81335,11.73335 -7.25335,4.69335 -14.93337,4.69335 -8.96001,0 -20.69337,-3.84001 -14.93336,-4.69334 -14.93336,-11.30669 0,-5.76001 4.48,-5.76001 1.92001,0 3.41334,2.56 2.13334,3.62668 2.77334,4.05335 1.70667,1.70667 8.74669,3.2 6.40001,1.70667 9.60002,1.70667 11.94669,0 18.13337,-9.38668 5.33334,-7.89335 5.33334,-20.69338 0,-13.65336 -2.34667,-21.76004 -10.24002,13.44003 -24.53338,13.44003 -4.26668,0 -10.02669,-2.77334 -5.76001,-2.98668 -8.53335,-6.40002 -5.76001,-6.82668 -5.76001,-21.54671 0,-18.13337 6.61334,-39.04007 8.53336,-27.09339 22.40005,-27.09339 11.09336,0 23.46671,20.05337 1.28001,2.34667 4.05334,6.18668 2.77334,0.85334 8.10669,4.05334 z m -12.80003,11.73336 q 0,-4.48001 -3.2,-7.46668 -0.64001,-8.96002 -4.48001,-15.36003 -4.90668,-7.89335 -13.2267,-7.89335 -5.76001,0 -11.52002,13.01336 -4.26667,9.81335 -5.76001,18.3467 -2.13334,12.80003 -2.13334,21.76004 0,26.24006 15.1467,26.24006 11.52002,0 19.20004,-19.20004 5.97334,-15.57337 5.97334,-29.44006 z m 85.97345,31.14673 q 0,9.38668 -12.58669,16.85336 -11.30669,6.82669 -21.33338,6.82669 -28.58672,0 -28.58672,-36.26674 0,-16.00004 5.76001,-34.34674 7.68001,-23.89338 19.6267,-23.89338 10.24003,0 22.40005,10.45335 12.16002,10.24002 12.16002,20.48004 0,13.2267 -10.66668,23.04005 -10.66669,9.81335 -24.10672,9.81335 -1.28,0 -5.54668,-2.13333 -4.05334,-2.13334 -5.54667,-2.13334 -2.77334,0 -2.77334,1.70667 0,24.53338 16.21336,24.53338 8.32002,0 15.36003,-5.54668 4.26668,-3.2 9.38669,-10.02668 4.05334,-5.33335 5.33334,-5.33335 4.90668,0 4.90668,5.97335 z m -14.72003,-39.25341 q 0,-7.46669 -4.26668,-13.8667 -4.26667,-6.61334 -11.30669,-6.61334 -8.53335,0 -13.86669,10.66668 -4.48001,8.96002 -4.48001,18.56004 0,6.18668 3.84001,10.45335 4.05334,4.05335 10.24002,4.05335 8.74668,0 14.5067,-7.46669 5.33334,-6.82668 5.33334,-15.78669 z" />
  </g>
</svg>
